<svg version="1.1" xmlns="http://www.w3.org/2000/svg" xmlns:xlink="http://www.w3.org/1999/xlink" width="1560" height="804"><defs/><g><path fill="none" stroke="#02063B" paint-order="fill stroke markers" d=" M 20 448.939969333696 L 21 451.0220095339403 L 22 453.0662265416849 L 23 455.0710431304119 L 24 457.0349124732066 L 25 458.9563193362199 L 26 460.83378124775504 L 27 462.66584964207675 L 28 464.45111097705944 L 29 466.18818782481355 L 30 467.8757399344473 L 31 469.51246526614415 L 32 471.09710099575875 L 33 472.6284244891558 L 34 474.10525424553964 L 35 475.52645080904745 L 36 476.89091764790277 L 37 478.19760200045033 L 38 479.4454956874197 L 39 480.6336358897916 L 40 481.76110589166615 L 41 482.8270357875594 L 42 483.8306031535842 L 43 484.7710336819952 L 44 485.64760177861046 L 45 486.4596311226472 L 46 487.20649518854094 L 47 487.8876177293446 L 48 488.5024732213348 L 49 489.05058726948266 L 50 489.5315369734755 L 51 489.9449512540082 L 52 490.29051113909105 L 53 490.56795001015473 L 54 490.77705380776086 L 55 490.9176611967609 L 56 490.9896636907751 L 57 490.99300573589585 L 58 490.9276847535504 L 59 490.7937511424906 L 60 490.5913082399071 L 61 490.3205122416995 L 62 489.9815720819622 L 63 489.5747492717804 L 64 489.1003576974595 L 65 488.5587633783449 L 66 487.9503841844175 L 67 487.275689513884 L 68 486.5351999310102 L 69 485.729486764477 L 70 484.8591716665684 L 71 483.9249261335326 L 72 482.92747098748566 L 73 481.8675758202569 L 74 480.74605839960657 L 75 479.5637840382726 L 76 478.3216649263343 L 77 477.0206594274067 L 78 475.6617713392105 L 79 474.24604911908614 L 80 472.7745850750514 L 81 471.248514523025 L 82 469.66901491086776 L 83 468.0373049099164 L 84 466.3546434747109 L 85 464.6223288716419 L 86 462.84169767726615 L 87 461.0141237470634 L 88 459.1410171554315 L 89 457.22382310773554 L 90 455.26402082525215 L 91 453.26312240386835 L 92 451.2226716474161 L 93 449.1442428765419 L 94 447.0294397140317 L 95 444.87989384752694 L 96 442.69726377058726 L 97 440.4832335030711 L 98 438.2395112918212 L 99 435.96782829265754 L 100 433.6699372346948 L 101 431.3476110680153 L 102 429.0026415957392 L 103 426.63683809155 L 104 424.25202590373925 L 105 421.8500450468498 L 106 419.4327487820022 L 107 417.00200218700195 L 108 414.5596807173282 L 109 412.1076687591162 L 110 409.64785817524955 L 111 407.1821468456826 L 112 404.7124372031218 L 113 402.24063476519314 L 114 399.76864666422995 L 115 397.298380175815 L 116 394.8317412472117 L 117 392.37063302682037 L 118 389.9169543957938 L 119 387.47259850294586 L 120 385.0394513040818 L 121 382.61939010687956 L 122 380.2142821224428 L 123 377.8259830246441 L 124 375.45633551837005 L 125 373.1071679177728 L 126 370.78029273562385 L 127 368.4775052848607 L 128 366.20058229340333 L 129 363.9512805333106 L 130 361.731335465333 L 131 359.54245989990915 L 132 357.3863426756373 L 133 355.26464735624324 L 134 353.1790109470487 L 135 351.1310426319314 L 136 349.1223225317503 L 137 347.1544004851951 L 138 345.2287948530002 L 139 343.34699134644495 L 140 341.5104418810456 L 141 339.72056345632177 L 142 337.9787370625032 L 143 336.28630661501944 L 144 334.6445779175944 L 145 333.05481765474684 L 146 331.5182524144731 L 147 330.03606774186665 L 148 328.60940722440415 L 149 327.239371609605 L 150 325.9270179557432 L 151 324.67335881626883 L 152 323.47936145856664 L 153 322.34594711765607 L 154 321.2739902854073 L 155 320.2643180358224 L 156 319.3177093869022 L 157 318.43489469959036 L 158 317.61655511426 L 159 316.8633220251758 L 160 316.17577659333875 L 161 315.55444929808783 L 162 314.9998195278064 L 163 314.512315210047 L 164 314.0923124813621 L 165 313.7401353970935 L 166 313.456055681346 L 167 313.2402925173369 L 168 313.09301237828436 L 169 313.014328898964 L 170 313.0043027880332 L 171 313.06294178119134 L 172 313.19020063521094 L 173 313.3859811628455 L 174 313.6501323085864 L 175 313.98245026521056 L 176 314.38267863102885 L 177 314.8505086077146 L 178 315.38557923855785 L 179 315.9874776869642 L 180 316.6557395549807 L 181 317.38984924160445 L 182 318.18924034059773 L 183 319.0532960775012 L 184 319.98134978551 L 185 320.97268541984386 L 186 322.02653811021503 L 187 323.1420947509686 L 188 324.318494628438 L 189 325.5548300850333 L 190 326.85014721954957 L 191 328.203446623154 L 192 329.61368415048537 L 193 331.07977172526995 L 194 332.6005781798325 L 195 334.17493012785445 L 196 335.801612869707 L 197 337.47937132965853 L 198 339.2069110242351 L 199 340.9828990609862 L 200 342.8059651668848 L 201 344.6747027455691 L 202 346.5876699626091 L 203 348.543390857962 L 204 350.5403564847565 L 205 352.5770260735295 L 206 354.65182822101445 L 207 356.763162102566 L 208 358.909398707285 L 209 361.0888820948902 L 210 363.2999306733681 L 211 365.54083849641415 L 212 367.8098765796646 L 213 370.1052942347034 L 214 372.4253204198158 L 215 374.7681651064444 L 216 377.1320206602956 L 217 379.5150632360291 L 218 381.9154541844559 L 219 384.3313414711575 L 220 386.7608611054332 L 221 389.202138578472 L 222 391.65329030963954 L 223 394.1124250997653 L 224 396.5776455903069 L 225 399.04704972726745 L 226 401.51873222873553 L 227 403.9907860549153 L 228 406.46130387951337 L 229 408.9283795613466 L 230 411.39010961503556 L 231 413.8445946796483 L 232 416.28994098416314 L 233 418.7242618086172 L 234 421.1456789398156 L 235 423.5523241204766 L 236 425.94234049069564 L 237 428.3138840206153 L 238 430.6651249331966 L 239 432.99424911599306 L 240 435.2994595208386 L 241 437.5789775503701 L 242 439.8310444303134 L 243 442.05392256647497 L 244 444.2458968853919 L 245 446.4052761576062 L 246 448.5303943025415 L 247 450.6196116739768 L 248 452.6713163251241 L 249 454.68392525233423 L 250 456.6558856164724 L 251 458.58567594101874 L 252 460.4718072859722 L 253 462.31282439664994 L 254 464.10730682649665 L 255 465.853870033038 L 256 467.55116644613133 L 257 469.1978865076912 L 258 470.792759682085 L 259 472.3345554364224 L 260 473.8220841899791 L 261 475.254198232024 L 262 476.629792607342 L 263 477.94780596876774 L 264 479.2072213960737 L 265 480.4070671805806 L 266 481.5464175748842 L 267 482.6243935071205 L 268 483.64016325921887 L 269 484.5929431086181 L 270 485.48199793295174 L 271 486.3066417772359 L 272 487.0662383831211 L 273 487.7602016798014 L 274 488.3879962361998 L 275 488.9491376740832 L 276 489.4431930417872 L 277 489.86978114826195 L 278 490.2285728571823 L 279 490.51929134089465 L 280 490.74171229400486 L 281 490.8956641064421 L 282 490.9810279958657 L 283 490.9977380993122 L 284 490.9457815240123 L 285 490.8251983573384 L 286 490.6360816358748 L 287 490.378577273635 L 288 490.052883949481 L 289 489.6592529538312 L 290 489.19798799477655 L 291 488.66944496375237 L 292 488.07403166094883 L 293 487.4122074806702 L 294 486.6844830568871 L 295 485.8914198692538 L 296 485.03362980989584 L 297 484.1117747113013 L 298 483.1265658356803 L 299 482.07876332618724 L 300 480.9691756204278 L 301 479.79865882670504 L 302 478.56811606348407 L 303 477.27849676258666 L 304 475.9307959366516 L 305 474.52605341142777 L 306 473.0653530234906 L 307 471.5498217840029 L 308 469.9806290091628 L 309 468.35898541801146 L 310 466.68614219829726 L 311 464.963390041114 L 312 463.1920581450625 L 313 461.3735131906994 L 314 459.5091582860682 L 315 457.6004318841231 L 316 455.6488066728838 L 317 453.6557884391744 L 318 451.6229149068259 L 319 449.55175455023755 L 320 447.4439053842112 L 321 445.3009937309955 L 322 443.1246729654873 L 323 440.9166222395625 L 324 438.6785451865163 L 325 436.41216860661706 L 326 434.1192411347836 L 327 431.8015318914164 L 328 429.46082911742445 L 329 427.098938794497 L 330 424.71768325169006 L 331 422.31889975939777 L 332 419.9044391117975 L 333 417.4761641988586 L 334 415.035948569021 L 335 412.5856749836483 L 336 410.1272339643727 L 337 407.66252233445425 L 338 405.19344175527544 L 339 402.7218972591053 L 340 400.2497957792606 L 341 397.77904467880245 L 342 395.31155027889895 L 343 392.84921638799403 L 344 390.39394283291324 L 345 387.94762399304227 L 346 385.5121473387089 L 347 383.0893919748946 L 348 380.6812271914019 L 349 378.2895110205926 L 350 375.91608880381466 L 351 373.5627917676176 L 352 371.2314356108614 L 353 368.92381910380334 L 354 366.6417227002473 L 355 364.3869071638261 L 356 362.1611122094734 L 357 359.966055161139 L 358 357.8034296267771 L 359 355.6749041916348 L 360 353.5821211308461 L 361 351.5266951423256 L 362 349.5102121009402 L 363 347.53422783491806 L 364 345.60026692544193 L 365 343.70982153034987 L 366 341.8643502328532 L 367 340.0652769161586 L 368 338.3139896648639 L 369 336.6118396939732 L 370 334.9601403063607 L 371 333.3601658794844 L 372 331.8131508821331 L 373 330.3202889219659 L 374 328.8827318245778 L 375 327.50158874480223 L 376 326.1779253109371 L 377 324.9127628025534 L 378 323.7070773625214 L 379 322.56179924386265 L 380 321.4778120920084 L 381 320.45595226301776 L 382 319.4970081782834 L 383 318.6017197162201 L 384 317.77077764140836 L 385 317.00482307163077 L 386 316.30444698321435 L 387 315.6701897550596 L 388 315.10254075170843 L 389 314.6019379457721 L 390 314.16876758001115 L 391 313.8033638693281 L 392 313.5060087429016 L 393 313.276931626663 L 394 313.11630926628095 L 395 313.0242655907931 L 396 313.0008716169874 L 397 313.04614539460886 L 398 313.16005199243324 L 399 313.3425035252185 L 400 313.59335922151297 L 401 313.9124255322683 L 402 314.2994562801734 L 403 314.7541528495938 L 404 315.2761644169701 L 405 315.86508822149773 L 406 316.52046987587926 L 407 317.2418037169094 L 408 318.0285331956219 L 409 318.880051306698 L 410 319.795701056805 L 411 320.7747759715021 L 412 321.8165206403254 L 413 322.9201312996283 L 414 324.08475645272983 L 415 325.30949752689156 L 416 326.5934095666157 L 417 327.9355019627314 L 418 329.3347392167035 L 419 330.790041739578 L 420 332.3002866849435 L 421 333.8643088152706 L 422 335.48090140095593 L 423 337.1488171513819 L 424 338.8667691772693 L 425 340.63343198358444 L 426 342.4474424922317 L 427 344.3074010937433 L 428 346.2118727271561 L 429 348.1593879872397 L 430 350.14844425822497 L 431 352.17750687315385 L 432 354.2450102979613 L 433 356.3493593393702 L 434 358.4889303756719 L 435 360.66207260944014 L 436 362.8671093412123 L 437 365.10233926315635 L 438 367.366037771723 L 439 369.65645829827395 L 440 371.9718336566551 L 441 374.31037740667966 L 442 376.6702852324642 L 443 379.04973633455904 L 444 381.446894834796 L 445 383.859911192769 L 446 386.28692363285796 L 447 388.72605958069045 L 448 391.1754371079378 L 449 393.6331663843255 L 450 396.0973511357431 L 451 398.5660901073238 L 452 401.03747853036776 L 453 403.50960959197715 L 454 405.98057590626706 L 455 408.44847098601986 L 456 410.91139071364495 L 457 413.3674348103117 L 458 415.81470830211833 L 459 418.2513229821709 L 460 420.67539886743776 L 461 423.0850656492612 L 462 425.4784641364044 L 463 427.8537476895194 L 464 430.20908364593276 L 465 432.54265473364455 L 466 434.8526604734562 L 467 437.13731856813786 L 468 439.39486627757105 L 469 441.6235617787989 L 470 443.8216855099394 L 471 445.9875414969231 L 472 448.1194586620295 L 473 450.2157921132178 L 474 452.2749244132503 L 475 454.2952668276363 L 476 456.27526055042733 L 477 458.21337790692326 L 478 460.108123532357 L 479 461.9580355256516 L 480 463.761686577358 L 481 465.51768507090253 L 482 467.22467615629694 L 483 468.8813427954794 L 484 470.4864067784827 L 485 472.03862970964366 L 486 473.53681396309423 L 487 474.97980360679577 L 488 476.36648529440447 L 489 477.69578912428045 L 490 478.96668946497493 L 491 480.1782057465627 L 492 481.32940321720514 L 493 482.4193936643637 L 494 483.4473361001046 L 495 484.4124374099678 L 496 485.3139529648984 L 497 486.1511871957694 L 498 486.9234941300517 L 499 487.6302778902176 L 500 488.2709931534933 L 501 488.8451455726055 L 502 489.35229215719795 L 503 489.7920416156227 L 504 490.16405465684346 L 505 490.4680442522173 L 506 490.70377585695303 L 507 490.87106759107587 L 508 490.96979037975746 L 509 490.99986805290456 L 510 490.9612774039282 L 511 490.85404820764916 L 512 490.6782631973248 L 513 490.43405800081587 L 514 490.12162103594216 L 515 489.74119336510773 L 516 489.29306850930766 L 517 488.7775922216609 L 518 488.1951622206419 L 519 487.54622788321956 L 520 486.83128989813747 L 521 486.0508998796051 L 522 485.2056599416968 L 523 484.2962222337876 L 524 483.32328843738395 L 525 482.2876092247372 L 526 481.189983679659 L 527 480.03125868098346 L 528 478.8123282491537 L 529 477.5341328564351 L 530 476.19765870128947 L 531 474.8039369474678 L 532 473.35404292841093 L 533 471.84909531757023 L 534 470.29025526528835 L 535 468.67872550290883 L 536 467.0157494148011 L 537 465.30261007902146 L 538 463.5406292773468 L 539 461.7311664754474 L 540 459.8756177739834 L 541 457.9754148314363 L 542 456.03202375950525 L 543 454.0469439919201 L 544 452.0217071275465 L 545 449.9578757486712 L 546 447.857042215385 L 547 445.72082743698707 L 548 443.5508796213654 L 549 441.348873003312 L 550 439.11650655275884 L 551 436.85550266392846 L 552 434.56760582641084 L 553 432.2545812791945 L 554 429.91821364868537 L 555 427.56030557177036 L 556 425.18267630498184 L 557 422.7871603208419 L 558 420.3756058924639 L 559 417.9498736675089 L 560 415.51183523259226 L 561 413.0633716692508 L 562 410.6063721025853 L 563 408.14273224369464 L 564 405.6743529270313 L 565 403.20313864380086 L 566 400.73099607254323 L 567 398.25983260802315 L 568 395.7915548895709 L 569 393.3280673300039 L 570 390.8712706462666 L 571 388.42306039292316 L 572 385.9853254996311 L 573 383.5599468137286 L 574 381.14879564905567 L 575 378.7537323421332 L 576 376.37660481680916 L 577 374.0192471584842 L 578 371.6834781990124 L 579 369.371100113373 L 580 367.0838970291908 L 581 364.82363365018506 L 582 362.5920538946019 L 583 360.3908795496853 L 584 358.2218089432217 L 585 356.08651563318824 L 586 353.9866471165089 L 587 351.9238235579194 L 588 349.89963653992135 L 589 347.9156478347868 L 590 345.9733881995663 L 591 344.0743561950239 L 592 342.22001702941543 L 593 340.41180142799806 L 594 338.65110452914803 L 595 336.9392848079335 L 596 335.2776630279759 L 597 333.6675212224078 L 598 332.1101017047131 L 599 330.6066061102141 L 600 329.1581944689429 L 601 327.76598431061433 L 602 326.43104980238934 L 603 325.1544209200964 L 604 323.9370826535478 L 605 322.7799742465654 L 606 321.68398847230253 L 607 320.649970944419 L 608 319.67871946464487 L 609 318.7709834072313 L 610 317.92746314076726 L 611 317.1488094878058 L 612 316.4356232227194 L 613 315.78845460816865 L 614 315.20780297054426 L 615 314.6941163147093 L 616 314.24779097833823 L 617 313.8691713261213 L 618 313.55854948406727 L 619 313.3161651141124 L 620 313.142205229208 L 621 313.0368040490297 L 622 313.00004289641925 L 623 313.03195013463977 L 624 313.1325011454917 L 625 313.3016183483071 L 626 313.5391712598077 L 627 313.84497659477955 L 628 314.21879840748807 L 629 314.66034827372306 L 630 315.169285513334 L 631 315.74521745308346 L 632 316.3876997296166 L 633 317.0962366323115 L 634 317.87028148574814 L 635 318.70923707149797 L 636 319.61245608891136 L 637 320.5792416545455 L 638 321.60884783984943 L 639 322.700480246688 L 640 323.85329662026487 L 641 325.06640749896803 L 642 326.33887690063915 L 643 327.66972304473563 L 644 329.05791910982816 L 645 330.50239402585044 L 646 332.00203330048896 L 647 333.55567987907614 L 648 335.1621350373208 L 649 336.82015930619133 L 650 338.5284734282339 L 651 340.2857593445906 L 652 342.09066121195565 L 653 343.9417864486817 L 654 345.8377068092352 L 655 347.7769594861658 L 656 349.7580482387446 L 657 351.77944454739486 L 658 353.8395887930307 L 659 355.93689146038906 L 660 358.0697343644284 L 661 360.23647189884923 L 662 362.4354323057687 L 663 364.6649189655752 L 664 366.92321170596415 L 665 369.2085681291466 L 666 371.5192249562045 L 667 373.8533993875585 L 668 376.20929047849665 L 669 378.5850805287022 L 670 380.9789364847113 L 671 383.3890113542135 L 672 385.81344563110946 L 673 388.25036873022236 L 674 390.697900430559 L 675 393.15415232600253 L 676 395.6172292823233 L 677 398.0852308993798 L 678 400.5562529773818 L 679 403.02838898608746 L 680 405.4997315357947 L 681 407.96837384899925 L 682 410.43241123157856 L 683 412.8899425423696 L 684 415.3390716600028 L 685 417.77790894586565 L 686 420.2045727020635 L 687 422.6171906232528 L 688 425.0139012412298 L 689 427.3928553611544 L 690 429.7522174883073 L 691 432.09016724427534 L 692 434.4049007714752 L 693 436.6946321249277 L 694 438.95759465021416 L 695 441.19204234654785 L 696 443.39625121390986 L 697 445.5685205832117 L 698 447.70717442845375 L 699 449.81056265987337 L 700 451.8770623970796 L 701 453.90507922119673 L 702 455.8930484050445 L 703 457.8394361204131 L 704 459.7427406214961 L 705 461.6014934035705 L 706 463.41426033602966 L 707 465.1796427688936 L 708 466.89627861194555 L 709 468.56284338565945 L 710 470.17805124311 L 711 471.7406559620736 L 712 473.2494519065584 L 713 474.70327495701906 L 714 476.10100340853916 L 715 477.44155883628923 L 716 478.72390692759046 L 717 479.94705827994443 L 718 481.1100691644117 L 719 482.2120422537516 L 720 483.25212731475887 L 721 484.2295218642662 L 722 485.1434717883043 L 723 485.9932719239423 L 724 486.7782666033606 L 725 487.497850159734 L 726 488.15146739453786 L 727 488.738614005914 L 728 489.258836977768 L 729 489.71173492929563 L 730 490.09695842467073 L 731 490.4142102426541 L 732 490.66324560591613 L 733 490.8438723698963 L 734 490.95595117105296 L 735 490.99939553439026 L 736 490.9741719401783 L 737 490.8802998498155 L 738 490.7178516908131 L 739 490.48695280091323 L 740 490.18778133138386 L 741 489.8205681095655 L 742 489.38559646077476 L 743 488.8832019897036 L 744 488.31377232148134 L 745 487.67774680260095 L 746 486.97561616193804 L 747 486.20792213212746 L 748 485.375257031586 L 749 484.47826330750576 L 750 483.51763304017135 L 751 482.4941074089806 L 752 481.4084761205847 L 753 480.2615767995852 L 754 479.05429434226073 L 755 477.7875602338197 L 756 476.462351829709 L 757 475.07969160152965 L 758 473.6406463481434 L 759 472.14632637257864 L 760 470.5978846253695 L 761 468.9965158149916 L 762 467.343455486078 L 763 465.6399790661284 L 764 463.8874008814451 L 765 462.0870731430593 L 766 460.24038490342434 L 767 458.34876098468516 L 768 456.41366087934955 L 769 454.4365776242077 L 770 452.4190366483734 L 771 450.36259459633 L 772 448.2688381268937 L 773 446.1393826890173 L 774 443.97587127538344 L 775 441.77997315474425 L 776 439.55338258398785 L 777 437.29781750092604 L 778 435.0150181988091 L 779 432.70674598359483 L 780 430.37478181500245 L 781 428.0209249324044 L 782 425.6469914666122 L 783 423.25481303863285 L 784 420.846235346471 L 785 418.4231167410708 L 786 415.9873267924957 L 787 413.5407448474506 L 788 411.08525857926355 L 789 408.62276253144034 L 790 406.15515665591994 L 791 403.684344847155 L 792 401.2122334731541 L 793 398.7407299046118 L 794 396.2717410432673 L 795 393.8071718506244 L 796 391.3489238781669 L 797 388.8988938002085 L 798 386.45897195050236 L 799 384.03104086374464 L 800 381.6169738230935 L 801 379.21863341482936 L 802 376.8378700912656 L 803 374.47652074302204 L 804 372.1364072817629 L 805 369.81933523448987 L 806 367.5270923504798 L 807 365.261447221936 L 808 363.02414791942243 L 809 360.81692064312904 L 810 358.64146839101466 L 811 356.4994696448488 L 812 354.39257707517027 L 813 352.3224162661607 L 814 350.2905844614155 L 815 348.2986493315834 L 816 346.348147764821 L 817 344.44058468099877 L 818 342.5774318705715 L 819 340.76012685901156 L 820 338.9900717976779 L 821 337.26863238197865 L 822 335.59713679766196 L 823 333.97687469604625 L 824 332.4090961989841 L 825 330.8950109343235 L 826 329.43578710261306 L 827 328.0325505757703 L 828 326.6863840284098 L 829 325.3983261024997 L 830 324.1693706059916 L 831 323.00046574604323 L 832 321.8925133974235 L 833 320.8463684066669 L 834 319.8628379325119 L 835 318.9426808231333 L 836 318.0866070306484 L 837 317.29527706335057 L 838 316.5693014760899 L 839 315.9092403991966 L 840 315.3156031063095 L 841 314.78884762144287 L 842 314.3293803655962 L 843 313.93755584317734 L 844 313.6136763684831 L 845 313.35799183244677 L 846 313.17069950983375 L 847 313.0519439070328 L 848 313.0018166505617 L 849 313.02035641637207 L 850 313.10754890000885 L 851 313.2633268276471 L 852 313.48757000799714 L 853 313.7801054250391 L 854 314.14070737151417 L 855 314.5690976230703 L 856 315.06494565292786 L 857 315.62786888689885 L 858 316.2574329985645 L 859 316.9531522443822 L 860 317.7144898384629 L 861 318.54085836673187 L 862 319.43162024015055 L 863 320.38608818665233 L 864 321.4035257814105 L 865 322.4831480150308 L 866 323.62412189923 L 867 324.8255671095318 L 868 326.08655666448675 L 869 327.40611764088874 L 870 328.78323192443986 L 871 330.2168369952811 L 872 331.7058267477865 L 873 333.2490523439834 L 874 334.8453230999454 L 875 336.4934074044704 L 876 338.1920336693371 L 877 339.9398913104059 L 878 341.7356317588063 L 879 343.5778695014329 L 880 345.4651831499451 L 881 347.39611653744805 L 882 349.3691798420039 L 883 351.3828507361136 L 884 353.43557556127575 L 885 355.52577052672046 L 886 357.65182293139236 L 887 359.81209240823705 L 888 362.00491218983615 L 889 364.22859039441005 L 890 366.4814113311994 L 891 368.7616368242138 L 892 371.06750755333184 L 893 373.39724441171364 L 894 375.7490498784799 L 895 378.1211094055999 L 896 380.5115928179139 L 897 382.9186557252157 L 898 385.3404409453011 L 899 387.77507993688823 L 900 390.2206942412982 L 901 392.6753969317915 L 902 395.1372940694359 L 903 397.6044861643848 L 904 400.07506964144017 L 905 402.547138308764 L 906 405.0187848286121 L 907 407.4881021889504 L 908 409.9531851748207 L 909 412.4121318383184 L 910 414.86304496605135 L 911 417.3040335429445 L 912 419.7332142112629 L 913 422.148712723727 L 914 424.54866538959647 L 915 426.93122051261224 L 916 429.2945398196817 L 917 431.6367998792092 L 918 433.95619350797296 L 919 436.25093116546793 L 920 438.5192423346348 L 921 440.75937688791197 L 922 442.9696064375566 L 923 445.14822566918986 L 924 447.29355365754236 L 925 449.4039351633804 L 926 451.477741910616 L 927 453.5133738426098 L 928 455.5092603567049 L 929 457.46386151603326 L 930 459.37566923766184 L 931 461.243208456163 L 932 463.06503826170785 L 933 464.8397530118085 L 934 466.56598341584896 L 935 468.24239759156916 L 936 469.8677020926846 L 937 471.4406429068528 L 938 472.96000642321246 L 939 474.4246203687518 L 940 475.83335471278235 L 941 477.1851225388192 L 942 478.478880883198 L 943 479.71363153977865 L 944 480.88842183011735 L 945 482.0023453385096 L 946 483.0545426113408 L 947 484.04420182020215 L 948 484.97055938826094 L 949 485.8329005794029 L 950 486.6305600496899 L 951 487.36292236071006 L 952 488.0294224544224 L 953 488.6295460891306 L 954 489.1628302362486 L 955 489.6288634375529 L 956 490.0272861226454 L 957 490.35779088638174 L 958 490.62012272605165 L 959 490.8140792381272 L 960 490.93951077442875 L 961 490.9963205575864 L 962 490.9844647557096 L 963 490.9039525162053 L 964 490.75484595872075 L 965 490.53726012721427 L 966 490.25136290119286 L 967 489.8973748661836 L 968 489.47556914354 L 969 488.98627117971336 L 970 488.4298584951534 L 971 487.8067603930296 L 972 487.11745762800075 L 973 486.3624820352858 L 974 485.54241612032354 L 975 484.6578926093377 L 976 483.709593961153 L 977 482.6982518406413 L 978 481.62464655420115 L 979 480.4896064477084 L 980 479.29400726740107 L 981 478.0387714841935 L 982 476.7248675819383 L 983 475.3533093101879 L 984 473.9251549020307 L 985 472.44150625760483 L 986 470.9035080939226 L 987 469.312347061657 L 988 467.66925082957584 L 989 465.97548713732596 L 990 464.2323628173037 L 991 462.4412227863604 L 992 460.6034490081248 L 993 458.72045942674197 L 994 456.79370687284984 L 995 454.82467794264176 L 996 452.8148918508739 L 997 450.76589925870775 L 998 448.6792810772883 L 999 446.5566472479849 L 1000 444.3996355002318 L 1001 442.2099100879291 L 1002 439.9891605053792 L 1003 437.7391001837475 L 1004 435.46146516905725 L 1005 433.1580127827324 L 1006 430.83052026572784 L 1007 428.4807834072886 L 1008 426.11061515940037 L 1009 423.7218442379961 L 1010 421.31631371200046 L 1011 418.8958795813006 L 1012 416.46240934473843 L 1013 414.01778055923353 L 1014 411.5638793911431 L 1015 409.1025991609807 L 1016 406.63583888261377 L 1017 404.165501798071 L 1018 401.69349390908457 L 1019 399.2217225065047 L 1020 396.7520946987197 L 1021 394.2865159402148 L 1022 391.8268885614109 L 1023 389.3751103009095 L 1024 386.9330728412837 L 1025 384.5026603495388 L 1026 382.0857480233751 L 1027 379.68420064436805 L 1028 377.29987113918617 L 1029 374.9345991499561 L 1030 372.5902096148758 L 1031 370.2685113601752 L 1032 367.97129570450585 L 1033 365.70033507683996 L 1034 363.45738164894215 L 1035 361.24416598347375 L 1036 359.06239569876703 L 1037 356.913754151303 L 1038 354.7998991369096 L 1039 352.72246161167885 L 1040 350.68304443359614 L 1041 348.6832211258452 L 1042 346.7245346627484 L 1043 344.80849627927597 L 1044 342.93658430504587 L 1045 341.11024302370987 L 1046 339.33088155860884 L 1047 337.5998727855566 L 1048 335.9185522735892 L 1049 334.28821725450103 L 1050 332.71012562195756 L 1051 331.18549496096153 L 1052 329.71550160841775 L 1053 328.3012797455252 L 1054 326.9439205226932 L 1055 325.64447121765795 L 1056 324.4039344274505 L 1057 323.22326729483706 L 1058 322.10338076983095 L 1059 321.04513890684393 L 1060 320.04935819802074 L 1061 319.11680694326964 L 1062 318.2482046574771 L 1063 317.4442215153622 L 1064 316.7054778343994 L 1065 316.0325435962096 L 1066 315.4259380067876 L 1067 314.8861290959062 L 1068 314.413533356005 L 1069 314.0085154208439 L 1070 313.6713877841672 L 1071 313.4024105585985 L 1072 313.20179127494833 L 1073 313.0696847220933 L 1074 313.0061928275478 L 1075 313.01136457882114 L 1076 313.08519598562106 L 1077 313.2276300829325 L 1078 313.4385569749692 L 1079 313.71781391996444 L 1080 314.06518545573533 L 1081 314.48040356592355 L 1082 314.9631478867852 L 1083 315.51304595436875 L 1084 316.1296734918922 L 1085 316.8125547370953 L 1086 317.56116280931684 L 1087 318.3749201160124 L 1088 319.2531987983987 L 1089 320.1953212158816 L 1090 321.200560468893 L 1091 322.26814095973424 L 1092 323.3972389909926 L 1093 324.5869834010699 L 1094 325.83645623633095 L 1095 327.1446934593562 L 1096 328.5106856927496 L 1097 329.93337899793 L 1098 331.4116756883016 L 1099 332.94443517618106 L 1100 334.5304748528235 L 1101 336.16857100087043 L 1102 337.85745973851635 L 1103 339.59583799466213 L 1104 341.38236451430737 L 1105 343.21566089340223 L 1106 345.09431264236355 L 1107 347.01687027743026 L 1108 348.9818504390214 L 1109 350.9877370362297 L 1110 353.0329824165694 L 1111 355.1160085600768 L 1112 357.2352082968385 L 1113 359.3889465470127 L 1114 361.57556158238356 L 1115 363.79336630847723 L 1116 366.0406495662472 L 1117 368.31567745232906 L 1118 370.61669465684264 L 1119 372.9419258177106 L 1120 375.2895768904494 L 1121 377.65783653237224 L 1122 380.04487750014135 L 1123 382.44885805958666 L 1124 384.86792340670684 L 1125 387.30020709875146 L 1126 389.7438324942859 L 1127 392.19691420112395 L 1128 394.6575595310115 L 1129 397.1238699599419 L 1130 399.59394259297034 L 1131 402.06587163240346 L 1132 404.5377498482275 L 1133 407.0076700496429 L 1134 409.47372655656545 L 1135 411.9340166699655 L 1136 414.38664213990484 L 1137 416.82971063014156 L 1138 419.26133717817316 L 1139 421.6796456495878 L 1140 424.08277018560676 L 1141 426.46885664269723 L 1142 428.83606402314786 L 1143 431.18256589549856 L 1144 433.5065518037344 L 1145 435.8062286641527 L 1146 438.0798221488256 L 1147 440.3255780545936 L 1148 442.5417636565287 L 1149 444.7266690448283 L 1150 446.8786084441052 L 1151 448.99592151405733 L 1152 451.07697463051045 L 1153 453.1201621458509 L 1154 455.1239076278712 L 1155 457.08666507607467 L 1156 459.00692011450036 L 1157 460.88319116014753 L 1158 462.7140305661007 L 1159 464.49802573846637 L 1160 466.2338002262695 L 1161 467.920014783461 L 1162 469.55536840222004 L 1163 471.1385993167538 L 1164 472.6684859768195 L 1165 474.14384799021775 L 1166 475.5635470335304 L 1167 476.92648773040145 L 1168 478.2316184966781 L 1169 479.4779323517678 L 1170 480.66446769557894 L 1171 481.7903090504487 L 1172 482.8545877674846 L 1173 483.8564826967752 L 1174 484.7952208209526 L 1175 485.67007785161815 L 1176 486.4803787881716 L 1177 487.2254984386103 L 1178 487.9048619019001 L 1179 488.51794501154336 L 1180 489.064274740002 L 1181 489.5434295636649 L 1182 489.95503978807636 L 1183 490.2987878331759 L 1184 490.5744084783287 L 1185 490.7816890669585 L 1186 490.92046967062333 L 1187 490.99064321240934 L 1188 490.9921555495468 L 1189 490.9250055151838 L 1190 490.78924491928706 L 1191 490.5849785086672 L 1192 490.31236388616105 L 1193 489.97161138903243 L 1194 489.5629839266848 L 1195 489.0867967778128 L 1196 488.54341734714683 L 1197 487.9332648819802 L 1198 487.2568101486964 L 1199 486.51457506954705 L 1200 485.70713231995995 L 1201 484.83510488668816 L 1202 483.8991655871416 L 1203 482.90003655027044 L 1204 481.8384886594035 L 1205 480.7153409574688 L 1206 479.5314600150567 L 1207 478.28775926181237 L 1208 476.9851982816748 L 1209 475.62478207250433 L 1210 474.2075602706715 L 1211 472.7346263412046 L 1212 471.20711673411955 L 1213 469.62621000758816 L 1214 467.9931259186136 L 1215 466.309124481921 L 1216 464.5755049977862 L 1217 462.7936050495538 L 1218 460.96479947161737 L 1219 459.0904992886592 L 1220 457.1721506269666 L 1221 455.21123359866374 L 1222 453.2092611597263 L 1223 451.16777794265005 L 1224 449.0883590646821 L 1225 446.9726089125308 L 1226 444.8221599044924 L 1227 442.6386712309503 L 1228 440.42382757421774 L 1229 438.1793378087127 L 1230 435.9069336824646 L 1231 433.6083684809783 L 1232 431.2854156744749 L 1233 428.93986754956205 L 1234 426.5735338263857 L 1235 424.1882402623307 L 1236 421.7858272433482 L 1237 419.36814836399594 L 1238 416.93706899728807 L 1239 414.49446485545434 L 1240 412.042220542728 L 1241 409.5822281012667 L 1242 407.1163855513383 L 1243 404.6465954268928 L 1244 402.17476330765254 L 1245 399.70279634885156 L 1246 397.23260180976035 L 1247 394.76608558213 L 1248 392.305150719689 L 1249 389.8516959698356 L 1250 387.4076143086467 L 1251 384.974791480343 L 1252 382.5551045423324 L 1253 380.1504204169568 L 1254 377.7625944510583 L 1255 375.39346898447604 L 1256 373.04487192858005 L 1257 370.718615355934 L 1258 368.4164941021844 L 1259 366.1402843812436 L 1260 363.89174241484255 L 1261 361.67260307750905 L 1262 359.48457855801587 L 1263 357.3293570383322 L 1264 355.2086013910982 L 1265 353.12394789662727 L 1266 351.07700498042266 L 1267 349.069351972192 L 1268 347.10253788730466 L 1269 345.1780802316411 L 1270 343.2974638307535 L 1271 341.4621396842401 L 1272 339.67352384621944 L 1273 337.93299633276575 L 1274 336.2419000571508 L 1275 334.6015397937104 L 1276 333.0131811711411 L 1277 331.4780496959964 L 1278 329.9973298071403 L 1279 328.5721639618881 L 1280 327.2036517545368 L 1281 325.89284906796723 L 1282 324.64076725897235 L 1283 323.44837237793956 L 1284 322.3165844234882 L 1285 321.24627663264175 L 1286 320.2382748070755 L 1287 319.2933566759658 L 1288 318.41225129592834 L 1289 317.595638488511 L 1290 316.84414831567375 L 1291 316.15836059366126 L 1292 315.5388044456424 L 1293 314.9859578934621 L 1294 314.5002474888217 L 1295 314.0820479841703 L 1296 313.7316820435627 L 1297 313.44941999370604 L 1298 313.23547961538804 L 1299 313.0900259754467 L 1300 313.01317129941253 L 1301 313.00497488492 L 1302 313.0654430559565 L 1303 313.1945291579826 L 1304 313.3921335939288 L 1305 313.6581039010405 L 1306 313.99223486851076 L 1307 314.39426869581246 L 1308 314.86389519160525 L 1309 315.40075201306564 L 1310 316.00442494545393 L 1311 316.674448221705 L 1312 317.41030488179194 L 1313 318.2114271715903 L 1314 319.0771969809312 L 1315 320.0069463205082 L 1316 320.9999578372672 L 1317 322.0554653678847 L 1318 323.172654529905 L 1319 324.35066335008054 L 1320 325.58858292943387 L 1321 326.88545814452135 L 1322 328.24028838436476 L 1323 329.65202832247815 L 1324 331.11958872339454 L 1325 332.641837283072 L 1326 334.2175995025281 L 1327 335.8456595940316 L 1328 337.5247614191489 L 1329 339.25360945792636 L 1330 341.0308698084532 L 1331 342.8551712160419 L 1332 344.72510613122705 L 1333 346.6392317957673 L 1334 348.5960713558134 L 1335 350.59411500138265 L 1336 352.6318211312606 L 1337 354.7076175424313 L 1338 356.81990264312117 L 1339 358.96704668851226 L 1340 361.1473930381827 L 1341 363.35925943429595 L 1342 365.60093929955593 L 1343 367.87070305392547 L 1344 370.16679944909345 L 1345 372.4874569196593 L 1346 374.8308849499934 L 1347 377.19527545572134 L 1348 379.5788041787574 L 1349 381.97963209482293 L 1350 384.39590683235485 L 1351 386.82576410171265 L 1352 389.26732913358103 L 1353 391.7187181254583 L 1354 394.178039695114 L 1355 396.6433963398946 L 1356 399.1128859007538 L 1357 401.5846030298702 L 1358 404.056640660731 L 1359 406.5270914795383 L 1360 408.99404939680767 L 1361 411.45561101802133 L 1362 413.90987711220265 L 1363 416.35495407727757 L 1364 418.78895540109295 L 1365 421.21000311696747 L 1366 423.6162292526432 L 1367 426.00577727153194 L 1368 428.3768035051353 L 1369 430.7274785755369 L 1370 433.0559888068688 L 1371 435.3605376246626 L 1372 437.63934694200617 L 1373 439.89065853143535 L 1374 442.1127353815062 L 1375 444.3038630369918 L 1376 446.4623509216818 L 1377 448.5865336427546 L 1378 450.6747722757206 L 1379 452.72545562894254 L 1380 454.7370014867592 L 1381 456.7078578302525 L 1382 458.6365040347153 L 1383 460.52145204289934 L 1384 462.3612475131311 L 1385 464.1544709414184 L 1386 465.89973875667636 L 1387 467.59570438822834 L 1388 469.2410593047603 L 1389 470.8345340239249 L 1390 472.37489909181716 L 1391 473.8609660315661 L 1392 475.2915882603118 L 1393 476.66566197385515 L 1394 477.9821269983055 L 1395 479.239967608063 L 1396 480.43821330950715 L 1397 481.5759395897863 L 1398 482.65226863013044 L 1399 483.66636998313703 L 1400 484.6174612135069 L 1401 485.504808501737 L 1402 486.3277272103017 L 1403 487.08558241188945 L 1404 487.77778937928383 L 1405 488.40381403651304 L 1406 488.96317337091926 L 1407 489.45543580582944 L 1408 489.8802215335405 L 1409 490.2372028083623 L 1410 490.52610419949144 L 1411 490.746702803521 L 1412 490.89882841642344 L 1413 490.982363664872 L 1414 490.99724409680096 L 1415 490.94345823113383 L 1416 490.8210475666416 L 1417 490.63010654992434 L 1418 490.3707825025404 L 1419 490.0432755073392 L 1420 489.6478382540871 L 1421 489.1847758445024 L 1422 488.65444555685303 L 1423 488.0572565702966 L 1424 487.39366964917565 L 1425 486.66419678751276 L 1426 485.86940081397887 L 1427 485.00989495763986 L 1428 484.08634237481573 L 1429 483.0994556374198 L 1430 482.0499961831696 L 1431 480.9387737280954 L 1432 479.76664564179976 L 1433 478.5345162859493 L 1434 477.24333631650956 L 1435 475.8941019502616 L 1436 474.4878541961658 L 1437 473.0256780521644 L 1438 471.50870166804776 L 1439 469.9380954750231 L 1440 468.3150712826621 L 1441 466.64088134392296 L 1442 464.9168173889682 L 1443 463.1442096285228 L 1444 461.32442572754366 L 1445 459.45886974999036 L 1446 457.54898107551065 L 1447 455.596233288882 L 1448 453.6021330430576 L 1449 451.56821889670084 L 1450 449.4960601271019 L 1451 447.3872555193938 L 1452 445.24343213300114 L 1453 443.06624404627354 L 1454 440.85737108027354 L 1455 438.6185175026992 L 1456 436.3514107129509 L 1457 434.0577999093446 L 1458 431.7394547395094 L 1459 429.39816393500644 L 1460 427.0357339312232 L 1461 424.6539874736093 L 1462 422.2547622113269 L 1463 419.8399092794037 L 1464 417.4112918704772 L 1465 414.97078379724246 L 1466 412.52026804669913 L 1467 410.0616353273236 L 1468 407.59678261028273 L 1469 405.1276116658159 L 1470 402.65602759591366 L 1471 400.1839373644264 L 1472 397.7132483257369 L 1473 395.2458667531281 L 1474 392.7836963679919 L 1475 390.3286368710001 L 1476 387.8825824763809 L 1477 385.4474204504277 L 1478 383.02502965536905 L 1479 380.6172790997221 L 1480 378.2260264962495 L 1481 375.85311682863147 L 1482 373.5003809279567 L 1483 371.1696340601384 L 1484 368.86267452533366 L 1485 366.5812822704563 L 1486 364.32721751584893 L 1487 362.10221939717604 L 1488 359.90800462358425 L 1489 357.74626615316635 L 1490 355.61867188675114 L 1491 353.5268633810232 L 1492 351.4724545819747 L 1493 349.4570305796543 L 1494 347.48214638518317 L 1495 345.54932573097796 L 1496 343.66005989510666 L 1497 341.81580655068535 L 1498 340.0179886412027 L 1499 338.2679932826406 L 1500 336.5671706932358 L 1501 334.9168331517146 L 1502 333.3182539847953 L 1503 331.77266658474656 L 1504 330.2812634577572 L 1505 328.8451953038516 L 1506 327.465570129061 L 1507 326.1434523905357 L 1508 324.8798621752573 L 1509 323.67577441298454 L 1510 322.5321181240425 L 1511 321.44977570253087 L 1512 320.4295822355086 L 1513 319.4723248586776 L 1514 318.5787421490645 L 1515 317.74952355516723 L 1516 316.9853088650075 L 1517 316.2866877124991 L 1518 315.6541991225121 L 1519 315.0883310949864 L 1520 314.58952022841186 L 1521 314.1581513829687 L 1522 313.7945573835867 L 1523 313.4990187631523 L 1524 313.27176354606183 L 1525 313.11296707228814 L 1526 313.0227518620962 L 1527 313.0011875215117 L 1528 313.04829068861665 L 1529 313.1640250207115 L 1530 313.3483012223561 L 1531 313.60097711426585 L 1532 313.9218577430107 L 1533 314.3106955314329 L 1534 314.7671904696663 L 1535 315.2909903466102 L 1536 315.88169102168064 L 1537 316.5388367366261 L 1538 317.26192046717085 L 1539 318.05038431421224" stroke-linecap="round" stroke-linejoin="round" stroke-miterlimit="10" stroke-width="32"/></g></svg>